<svg version="1.2" xmlns="http://www.w3.org/2000/svg" viewBox="0 0 91 102" width="50" height="56">
	<title>Frame 28</title>
	<style>
		.s0 { fill: #002d38 } 
		.s1 { fill: #fc8e09 } 
		.s2 { fill: #fc8e08 } 
	</style>
	<path class="s0" d="m44 17c3.8 1.3 4.8 2.9 7.3 6q1.1 1.5 2.3 3c1.2 1.5 1.2 1.5 2.4 3q1.1 1.3 2.1 2.7c4.9 6.1 4.9 6.1 4.9 7.3-5 0.7-5 0.7-8 0-2.8-2.4-4.7-5-7-8 0 5.3 0 10.6 0 16 1.6-1.3 3.3-2.6 5-4 3.5-1.2 6.2-1.1 9.9-1.1 1.8 0 1.8 0 3.6 0 2.3 0 2.3 0 4.7 0 4.9 0.1 9.8 0.1 14.8 0.1 0 14.2 0 28.4 0 43-14.1 0.3-14.1 0.3-18.5 0.3-6.9 0.2-12 0.3-17.5 4.7-1.2 2.4-1.3 4.4-1.6 7.1q-0.1 1.4-0.2 2.8c-0.1 1-0.1 1-0.2 2.1q-2.5 0-5 0 0-1-0.1-2c-0.2-5.6-0.2-5.6-2.7-10.5-4.5-3.1-7.6-3.8-13.2-3.9q-1.8-0.1-3.6-0.1-2.3-0.1-4.7-0.1c-4.8-0.1-9.7-0.3-14.7-0.4 0-14.2 0-28.4 0-43 7.5-0.1 7.5-0.1 15.1-0.2 2.4-0.1 2.4-0.1 4.8-0.2q1.8 0 3.7 0 1.9 0 3.9-0.1c4.4 0.6 7.3 2.3 10.5 5.5 0-5.3 0-10.6 0-16q-1.2 2-2.4 4c-2.9 3.8-2.9 3.8-6 4.5-2.2 0-4.4-0.1-6.6-0.5 2.7-4.9 6.1-9 9.6-13.3q0.9-1 1.8-2.2c4.4-5.3 4.4-5.3 5.6-6.5zm-36 29c0 3.6 0 7.3 0 11q3.9 0 7.8 0.1 1.1 0 2.2 0c3.3 0 5.9-0.1 9-1.1-0.5-5-0.5-5-1-10-5.9 0-11.9 0-18 0zm57 0q0 1.5 0 3c0.9 0.3 0.9 0.3 1.8 0.6 6.5 2.5 9.4 5.7 13.2 11.4q1 1 2 2c0-5.6 0-11.2 0-17-5.6 0-11.2 0-17 0zm-34 1c0.2 8.4 2.9 14 8.8 20 1.8 2.1 1.8 2.1 3.2 2 0.5-6.9 0.1-12.2-4-18-3.4-3.4-3.4-3.4-8-4zm20.6 4.3c-4.2 4.5-3.8 9.9-3.7 15.7q0.1 1 0.1 2c5.9-4.4 10-8.9 11.5-16.3 0.2-1.9 0.4-3.8 0.5-5.7-4.1 0-5.5 1.6-8.4 4.3zm12.4 0.7c-1.6 3.9-1.6 3.9-2 8 1.5 2.1 3.2 3.6 5.2 5.4 4.4 4 5.2 8.9 5.8 14.6 3 0 5.9 0 9 0 0.9-8.8-2-15.8-7.4-22.8-2-2.1-4.2-3.6-6.6-5.2q-2 0-4 0zm-56 8c0 3 0 5.9 0 9 9 0.7 17.9 1.2 27 1q-0.9-1.6-1.8-3.2c-0.4-1-0.4-1-0.9-1.9-1.7-2.4-2.9-4.1-5.3-5.9-2.8-0.3-5.2-0.4-8.1-0.3q-1 0-2.1 0c-3.2 0.1-5.8 0.3-8.8 1.3zm52 3c-3.6 3.5-3.6 3.5-5 8q1.2 1.2 2.4 2.4c2.6 2.6 2.6 2.6 3.6 6.6 3.3 0 6.6 0 10 0-1-7.4-3.3-12-9-17q-1 0-2 0zm-52 9c0 2.6 0 5.3 0 8q1.1 0 2.2 0 5.1 0.2 10.2 0.3 1.8 0 3.6 0.1c6.9 0.2 12.5 1 19 3.6q0.2-1.8 0.3-3.7c0.1-1.1 0.1-1.1 0.2-2.2-0.8-3.3-2.7-4.3-5.5-6.1-3.4-0.5-3.4-0.5-7.1-0.4-0.9 0-0.9 0-1.9 0q-3.2 0.1-6.3 0.2-2.1 0-4.3 0-5.2 0.1-10.4 0.2zm44 0c-2.2 1.5-2.2 1.5-4 4-0.4 2.8-0.2 5.2 0 8q1.1-0.4 2.2-0.9 3.9-1.5 7.8-3.1c-0.1-2.4-0.1-2.4-1-5-2.5-1.8-2.5-1.8-5-3z"/>
	<path class="s1" d="m70 8c5 3.5 9.5 6.9 13 12-0.1 2-0.1 2-1 4-1.8 1.5-1.8 1.5-4 2.8q-1.2 0.7-2.5 1.5-1.3 0.7-2.6 1.5-1.2 0.7-2.6 1.5-3.1 1.9-6.3 3.7c-4.9-4.6-4.9-4.6-6-8 0.9-2 0.9-2 2.3-4.2q0.7-1.2 1.5-2.4 0.8-1.3 1.6-2.5 0.8-1.3 1.6-2.6c3.8-6.1 3.8-6.1 5-7.3z"/>
	<path class="s1" d="m22 9c2.3 2.7 4 5.7 5.8 8.8q0.8 1.2 1.6 2.4 0.7 1.2 1.5 2.5 0.7 1.1 1.4 2.2c0.7 2.1 0.7 2.1 0.1 4.1-1.4 2-1.4 2-5.4 6-6.3-4-12.5-7.9-19-12 1.4-5.7 4.8-9.1 9.2-12.9 1.8-1.1 1.8-1.1 4.8-1.1z"/>
	<path class="s1" d="m43 0c1.1 15 1.1 15-1.6 19.9-1.7 1.9-3.4 3.6-5.4 5.1-3.2-2.8-5.2-6.3-7.3-9.9q-0.5-1-1.1-1.9c-2.6-4.6-2.6-4.6-2.5-7.5 1.7-3.1 4.8-3.6 7.9-4.7 3.4-0.9 6.5-1 10-1z"/>
	<path class="s1" d="m48 0c7 0.3 11.9 1.5 18 5-1.4 4.9-3.5 9-6.1 13.4q-0.6 0.9-1.2 1.9-1.3 2.4-2.7 4.7-2.5-2.5-5-5-0.8-0.7-1.6-1.4c-1.8-2-1.8-3-1.7-5.6q0-1.1 0-2.3 0.1-1.2 0.1-2.4 0-1.2 0.1-2.4 0-3 0.1-5.9z"/>
	<path class="s2" d="m85 26c3 3 3 3 5 13-7.6 0-15.2 0-23 0 4.5-4.5 4.5-4.5 7.5-6.4q0.9-0.5 1.8-1.2c1-0.5 1-0.5 1.9-1.1q1-0.7 2-1.3 2.4-1.5 4.8-3z"/>
</svg>